<?xml version="1.0" encoding="UTF-8"?>
<!DOCTYPE svg PUBLIC "-//W3C//DTD SVG 1.1//EN" "http://www.w3.org/Graphics/SVG/1.1/DTD/svg11.dtd">
<svg version="1.1" xmlns="http://www.w3.org/2000/svg" xmlns:xlink="http://www.w3.org/1999/xlink" width="1024" height="1024"  xml:space="preserve" id="icon">
    <!-- Generated by PaintCode - http://www.paintcodeapp.com -->
    <path id="icon-iconbezier9" stroke="none" fill="rgb(0, 0, 0)" d="M 399.68,91.56 C 399.6,91.36 399.52,91.16 399.44,90.96 399.28,90.48 399.08,90.08 398.8,89.64 398.68,89.44 398.56,89.24 398.4,89.08 398.12,88.68 397.8,88.32 397.44,88 397.28,87.88 397.12,87.72 396.92,87.56 396.84,87.52 396.8,87.44 396.72,87.36 396.24,87.04 395.72,86.8 395.16,86.56 395.16,86.56 395.12,86.52 395.08,86.52 L 290.84,46.64 290.84,40 C 290.84,38.36 290.68,36.8 290.32,35.24 289.64,32.2 288.24,29.32 286.28,26.64 285.32,25.32 284.2,24.04 282.92,22.8 267.88,7.88 233.6,-0 200.92,-0 L 200.92,-0 200.92,-0 C 162.76,-0 122.52,10.72 113.04,30.8 111.72,33.68 110.96,36.76 110.96,40 L 110.96,44.68 4.92,84.64 C 4.88,84.68 4.8,84.72 4.76,84.76 4.24,84.96 3.76,85.2 3.28,85.52 3.24,85.56 3.16,85.64 3.08,85.68 2.92,85.84 2.76,86 2.56,86.16 2.2,86.48 1.88,86.8 1.6,87.16 1.44,87.36 1.32,87.56 1.2,87.8 0.92,88.2 0.72,88.6 0.56,89.04 0.48,89.28 0.4,89.48 0.32,89.68 0.16,90.32 0.04,91 0,91.68 0,91.72 0,91.72 0,91.76 L 0,91.76 0,91.8 0,196.28 C 0,199.44 1.96,202.28 4.92,203.4 L 198.2,277.4 C 198.28,277.44 198.36,277.4 198.4,277.44 199.24,277.72 200.08,277.92 200.92,277.92 201.76,277.92 202.6,277.72 203.4,277.48 203.48,277.44 203.56,277.44 203.6,277.4 L 395.08,205.28 C 398.04,204.16 400,201.32 400,198.16 L 400,93.64 C 400,92.92 399.88,92.24 399.68,91.56 Z M 126.56,38.04 C 129.92,28.12 158.16,15.24 200.92,15.24 237.96,15.24 264.12,24.92 272.64,33.96 274.6,36.04 275.6,38.12 275.6,40 275.6,50.08 246.52,64.72 200.92,64.72 155.32,64.72 126.24,50.08 126.24,40 126.24,39.36 126.36,38.72 126.56,38.04 Z M 275.6,62.92 L 275.6,89 C 275.6,99.08 246.52,113.76 200.92,113.76 L 200.92,80 C 229.12,80 258.4,74.08 275.6,62.92 Z M 200.92,157.64 L 29.08,91.84 110.96,61 110.96,89 C 110.96,115 157.32,129 200.92,129 244.52,129 290.84,115 290.84,89 L 290.84,62.92 370.88,93.6 316.92,113.92 200.92,157.64 Z M 384.76,192.88 L 208.52,259.28 208.52,171.04 384.76,104.64 384.76,192.88 384.76,192.88 Z M 384.76,192.88" transform="translate(112, 234) scale(2, 2)"  />
</svg>
